<svg xmlns="http://www.w3.org/2000/svg" width="1000" height="1050" viewBox="0 0 1000 1050"><rect width="1000" height="1050" fill="#ffffff"/><defs><marker id="arr" viewBox="0 0 10 10" refX="9" refY="5" markerWidth="8" markerHeight="8" orient="auto"><path d="M0,0 L10,5 L0,10 z" fill="#12352a"/></marker><marker id="arrs" viewBox="0 0 10 10" refX="1" refY="5" markerWidth="8" markerHeight="8" orient="auto"><path d="M10,0 L0,5 L10,10 z" fill="#12352a"/></marker></defs><text x="500" y="32.0" font-family="Segoe UI, Arial, sans-serif" font-size="26" font-weight="700" text-anchor="middle" dominant-baseline="central" fill="#12352a">Use case diagram</text><rect x="150" y="64" width="700" height="790" rx="12" fill="#fbfcfa" stroke="#12352a" stroke-width="1.8"/><text x="500" y="92.0" font-family="Segoe UI, Arial, sans-serif" font-size="20" font-weight="700" text-anchor="middle" dominant-baseline="central" fill="#12352a">Origin</text><ellipse cx="330" cy="150" rx="158" ry="31" fill="#e8efe9" stroke="#12352a" stroke-width="1.7"/><text x="330" y="150.0" font-family="Segoe UI, Arial, sans-serif" font-size="17" font-weight="500" text-anchor="middle" dominant-baseline="central" fill="#12352a">Register and sign in</text><line x1="98" y1="420" x2="172" y2="150" stroke="#12352a" stroke-width="1.4"/><ellipse cx="330" cy="234" rx="158" ry="31" fill="#e8efe9" stroke="#12352a" stroke-width="1.7"/><text x="330" y="234.0" font-family="Segoe UI, Arial, sans-serif" font-size="17" font-weight="500" text-anchor="middle" dominant-baseline="central" fill="#12352a">Try an idea on the map</text><line x1="98" y1="420" x2="172" y2="234" stroke="#12352a" stroke-width="1.4"/><ellipse cx="330" cy="318" rx="158" ry="31" fill="#e8efe9" stroke="#12352a" stroke-width="1.7"/><text x="330" y="318.0" font-family="Segoe UI, Arial, sans-serif" font-size="17" font-weight="500" text-anchor="middle" dominant-baseline="central" fill="#12352a">Check an idea</text><line x1="98" y1="420" x2="172" y2="318" stroke="#12352a" stroke-width="1.4"/><ellipse cx="330" cy="402" rx="158" ry="31" fill="#e8efe9" stroke="#12352a" stroke-width="1.7"/><text x="330" y="402.0" font-family="Segoe UI, Arial, sans-serif" font-size="17" font-weight="500" text-anchor="middle" dominant-baseline="central" fill="#12352a">View result</text><line x1="98" y1="420" x2="172" y2="402" stroke="#12352a" stroke-width="1.4"/><ellipse cx="330" cy="486" rx="158" ry="31" fill="#e8efe9" stroke="#12352a" stroke-width="1.7"/><text x="330" y="486.0" font-family="Segoe UI, Arial, sans-serif" font-size="17" font-weight="500" text-anchor="middle" dominant-baseline="central" fill="#12352a">Browse ideas</text><line x1="98" y1="420" x2="172" y2="486" stroke="#12352a" stroke-width="1.4"/><ellipse cx="330" cy="570" rx="158" ry="31" fill="#e8efe9" stroke="#12352a" stroke-width="1.7"/><text x="330" y="570.0" font-family="Segoe UI, Arial, sans-serif" font-size="17" font-weight="500" text-anchor="middle" dominant-baseline="central" fill="#12352a">Lock idea for group</text><line x1="98" y1="420" x2="172" y2="570" stroke="#12352a" stroke-width="1.4"/><ellipse cx="330" cy="654" rx="158" ry="31" fill="#e8efe9" stroke="#12352a" stroke-width="1.7"/><text x="330" y="654.0" font-family="Segoe UI, Arial, sans-serif" font-size="17" font-weight="500" text-anchor="middle" dominant-baseline="central" fill="#12352a">View Class Radar</text><line x1="98" y1="420" x2="172" y2="654" stroke="#12352a" stroke-width="1.4"/><ellipse cx="330" cy="738" rx="158" ry="31" fill="#e8efe9" stroke="#12352a" stroke-width="1.7"/><text x="330" y="738.0" font-family="Segoe UI, Arial, sans-serif" font-size="17" font-weight="500" text-anchor="middle" dominant-baseline="central" fill="#12352a">Download history</text><line x1="98" y1="420" x2="172" y2="738" stroke="#12352a" stroke-width="1.4"/><ellipse cx="670" cy="190" rx="158" ry="31" fill="#e8efe9" stroke="#12352a" stroke-width="1.7"/><text x="670" y="190.0" font-family="Segoe UI, Arial, sans-serif" font-size="17" font-weight="500" text-anchor="middle" dominant-baseline="central" fill="#12352a">Review locked ideas</text><line x1="902" y1="420" x2="828" y2="190" stroke="#12352a" stroke-width="1.4"/><ellipse cx="670" cy="282" rx="158" ry="31" fill="#e8efe9" stroke="#12352a" stroke-width="1.7"/><text x="670" y="282.0" font-family="Segoe UI, Arial, sans-serif" font-size="17" font-weight="500" text-anchor="middle" dominant-baseline="central" fill="#12352a">Correct a match</text><line x1="902" y1="420" x2="828" y2="282" stroke="#12352a" stroke-width="1.4"/><ellipse cx="670" cy="374" rx="158" ry="31" fill="#e8efe9" stroke="#12352a" stroke-width="1.7"/><text x="670" y="374.0" font-family="Segoe UI, Arial, sans-serif" font-size="17" font-weight="500" text-anchor="middle" dominant-baseline="central" fill="#12352a">Close the semester</text><line x1="902" y1="420" x2="828" y2="374" stroke="#12352a" stroke-width="1.4"/><ellipse cx="670" cy="466" rx="158" ry="31" fill="#e8efe9" stroke="#12352a" stroke-width="1.7"/><text x="670" y="466.0" font-family="Segoe UI, Arial, sans-serif" font-size="17" font-weight="500" text-anchor="middle" dominant-baseline="central" fill="#12352a">Download report</text><line x1="902" y1="420" x2="828" y2="466" stroke="#12352a" stroke-width="1.4"/><ellipse cx="670" cy="558" rx="158" ry="31" fill="#e8efe9" stroke="#12352a" stroke-width="1.7"/><text x="670" y="558.0" font-family="Segoe UI, Arial, sans-serif" font-size="17" font-weight="500" text-anchor="middle" dominant-baseline="central" fill="#12352a">Drop files in DB folder</text><line x1="902" y1="420" x2="828" y2="558" stroke="#12352a" stroke-width="1.4"/><ellipse cx="670" cy="690" rx="158" ry="31" fill="#fbf7ee" stroke="#8c5f1c" stroke-dasharray="7 5" stroke-width="1.7"/><text x="670" y="690.0" font-family="Segoe UI, Arial, sans-serif" font-size="17" font-weight="500" text-anchor="middle" dominant-baseline="central" fill="#12352a">Read the DB folder</text><ellipse cx="670" cy="778" rx="158" ry="31" fill="#fbf7ee" stroke="#8c5f1c" stroke-dasharray="7 5" stroke-width="1.7"/><text x="670" y="778.0" font-family="Segoe UI, Arial, sans-serif" font-size="17" font-weight="500" text-anchor="middle" dominant-baseline="central" fill="#12352a">Refresh ideas</text><circle cx="70" cy="388" r="18" fill="#ffffff" stroke="#12352a" stroke-width="2"/><line x1="70" y1="406" x2="70" y2="456" stroke="#12352a" stroke-width="2"/><line x1="44" y1="424" x2="96" y2="424" stroke="#12352a" stroke-width="2"/><line x1="70" y1="456" x2="48" y2="488" stroke="#12352a" stroke-width="2"/><line x1="70" y1="456" x2="92" y2="488" stroke="#12352a" stroke-width="2"/><text x="70" y="512.0" font-family="Segoe UI, Arial, sans-serif" font-size="19" font-weight="700" text-anchor="middle" dominant-baseline="central" fill="#12352a">Student</text><circle cx="930" cy="388" r="18" fill="#ffffff" stroke="#12352a" stroke-width="2"/><line x1="930" y1="406" x2="930" y2="456" stroke="#12352a" stroke-width="2"/><line x1="904" y1="424" x2="956" y2="424" stroke="#12352a" stroke-width="2"/><line x1="930" y1="456" x2="908" y2="488" stroke="#12352a" stroke-width="2"/><line x1="930" y1="456" x2="952" y2="488" stroke="#12352a" stroke-width="2"/><text x="930" y="512.0" font-family="Segoe UI, Arial, sans-serif" font-size="19" font-weight="700" text-anchor="middle" dominant-baseline="central" fill="#12352a">Supervisor</text><rect x="560" y="880" width="240" height="84" rx="2" fill="#ffffff" stroke="#12352a" stroke-width="1.8" stroke-dasharray="7 5"/><text x="680.0" y="911.5" font-family="Segoe UI, Arial, sans-serif" font-size="17" font-weight="600" text-anchor="middle" dominant-baseline="central" fill="#12352a">Folder watcher and</text><text x="680.0" y="932.5" font-family="Segoe UI, Arial, sans-serif" font-size="17" font-weight="600" text-anchor="middle" dominant-baseline="central" fill="#12352a">timer (system)</text><line x1="640" y1="880" x2="640" y2="810" stroke="#12352a" stroke-width="1.4"/><line x1="720" y1="880" x2="720" y2="810" stroke="#12352a" stroke-width="1.4"/><path d="M 930 540 L 930 1000 L 70 1000 L 70 540" fill="none" stroke="#12352a" stroke-width="1.8" stroke-dasharray="7 6" marker-end="url(#arr)"/><text x="500" y="1026.0" font-family="Segoe UI, Arial, sans-serif" font-size="17" font-weight="400" text-anchor="middle" dominant-baseline="central" fill="#365547">The supervisor can also do everything a student can (generalisation).</text></svg>